<?xml version="1.0" encoding="UTF-8" standalone="no"?>
<!-- Generator: Adobe Illustrator 20.1.0, SVG Export Plug-In . SVG Version: 6.00 Build 0)  -->

<svg
   xmlns:dc="http://purl.org/dc/elements/1.1/"
   xmlns:cc="http://creativecommons.org/ns#"
   xmlns:rdf="http://www.w3.org/1999/02/22-rdf-syntax-ns#"
   xmlns:svg="http://www.w3.org/2000/svg"
   xmlns="http://www.w3.org/2000/svg"
   xmlns:sodipodi="http://sodipodi.sourceforge.net/DTD/sodipodi-0.dtd"
   xmlns:inkscape="http://www.inkscape.org/namespaces/inkscape"
   version="1.1"
   id="svg2985"
   inkscape:version="0.92.3 (2405546, 2018-03-11)"
   sodipodi:docname="NHS_Scotland.svg"
   x="0px"
   y="0px"
   width="999.7157"
   height="656.42096"
   viewBox="0 0 999.71568 656.42096"
   xml:space="preserve"><metadata
   id="metadata35"><rdf:RDF><cc:Work
       rdf:about=""><dc:format>image/svg+xml</dc:format><dc:type
         rdf:resource="http://purl.org/dc/dcmitype/StillImage" /><dc:title></dc:title></cc:Work></rdf:RDF></metadata><defs
   id="defs33" /><sodipodi:namedview
   pagecolor="#ffffff"
   bordercolor="#666666"
   borderopacity="1"
   objecttolerance="10"
   gridtolerance="10"
   guidetolerance="10"
   inkscape:pageopacity="0"
   inkscape:pageshadow="2"
   inkscape:window-width="1366"
   inkscape:window-height="705"
   id="namedview31"
   showgrid="false"
   inkscape:zoom="0.76367532"
   inkscape:cx="499.54087"
   inkscape:cy="328.85201"
   inkscape:window-x="-8"
   inkscape:window-y="-8"
   inkscape:window-maximized="1"
   inkscape:current-layer="svg2985"
   fit-margin-top="0.25"
   fit-margin-right="0.25"
   fit-margin-bottom="0.25"
   fit-margin-left="0.25" />
<style
   type="text/css"
   id="style2">
	.st0{fill:#004684;}
	.st1{fill:#00A2E5;}
	.st2{fill:none;}
</style>
<g
   id="g3021"
   transform="matrix(9.1771352,0,0,9.1771352,488.88108,780.32292)">
	<path
   id="path3023"
   inkscape:connector-curvature="0"
   class="st0"
   d="m 21.8,-75.6 c 0,4.7 3.1,6.8 9.6,8.5 3.7,1 5.9,1.7 5.9,4.1 0,1.8 -1.7,3.1 -3.8,3.1 -4.8,0 -10,-2.9 -10,-2.9 l -2.8,5.8 c 0,0 4.5,3.6 11.7,3.6 8.1,0 13.2,-4.3 13.2,-10.1 0,-4.5 -3.1,-7.3 -9.4,-9.1 -3.9,-1.1 -6.2,-1.4 -6.2,-3.5 0,-1.5 1.4,-2.6 3.8,-2.6 2.8,0 7.8,2.2 7.8,2.2 l 2.5,-5.9 c 0,0 -4.5,-2.6 -10.1,-2.6 -7.4,-0.1 -12.2,4 -12.2,9.4"
   style="fill:#004684" />
</g>
<g
   id="g3025"
   transform="matrix(9.1771352,0,0,9.1771352,25.27972,845.91102)">
	<path
   id="path3027"
   inkscape:connector-curvature="0"
   class="st0"
   d="m 9.2,-91.7 v 30.2 h 7.7 v -17.9 c 0,0 6,10.4 11.3,17.9 5.2,0 6.4,0 6.4,0 V -91.7 H 27 V -76 c 0,0 -4.2,-7.3 -10.4,-15.7 -3.7,0 -7.4,0 -7.4,0"
   style="fill:#004684" />
</g>
<g
   id="g3029"
   transform="matrix(9.1771352,0,0,9.1771352,392.99743,845.83662)">
	<path
   id="path3031"
   inkscape:connector-curvature="0"
   class="st0"
   d="m 19.2,-91.6 v 11.5 H 7.8 V -91.6 H 0.1 v 30.1 h 7.7 v -13 h 11.4 v 13 h 7.7 v -30.1 z"
   style="fill:#004684" />
</g>
<g
   id="g3033"
   transform="matrix(9.1771352,0,0,9.1771352,-62.154519,612.32632)">
	<path
   id="path3035"
   inkscape:connector-curvature="0"
   class="st1"
   d="m 6.8,-34.4 c 0,0 1.7,12.9 14.8,15.1 3.2,0.5 9.9,-0.1 14.3,-0.8 10.7,-1.7 18.8,-2 25.4,7.1 h 0.3 c 0,0 0.9,-1.8 -0.3,-4.7 -2.5,-4.5 -11,-11.9 -26.1,-9.4 -5.7,0.5 -8.1,0.9 -11.2,0.6 C 12,-27.4 9.9,-34 9.8,-34.4 h -3"
   style="fill:#00a2e5" />
</g>
<g
   id="g3037"
   transform="matrix(9.1771352,0,0,9.1771352,714.97448,612.32632)">
	<path
   id="path3039"
   inkscape:connector-curvature="0"
   class="st1"
   d="m 27.9,-34.4 c -0.1,0.4 -2.3,7 -14.4,7.9 -3,0.2 -5.4,-0.1 -11.2,-0.6 -15,-2.4 -21.3,5 -23.2,9 -1.2,2.7 -0.5,5.2 -0.5,5.2 h 0.3 c 6.6,-9.1 12,-8.9 22.7,-7.2 4.3,0.7 11.1,1.3 14.3,0.8 C 29.2,-21.5 31,-34.4 31,-34.4 h -3.1"
   style="fill:#00a2e5" />
</g>
<g
   id="g3041"
   transform="matrix(9.1771352,0,0,9.1771352,18.92822,395.62383)">
	<path
   id="path3043"
   inkscape:connector-curvature="0"
   class="st0"
   d="m 9,18.7 c 0,1.6 1,2.4 2.2,3.3 1,0.8 2.6,1.6 2.6,3 0,1.1 -0.9,1.7 -1.9,1.7 -1.1,0 -1.8,-0.5 -2.5,-1 l -0.9,1.4 c 0.9,0.8 2.3,1.2 3.6,1.2 2.7,0 4.2,-1.8 4.2,-3.3 0,-1.5 -0.9,-2.5 -2.5,-3.8 -1.4,-1.1 -2.3,-1.7 -2.3,-2.5 0,-0.7 0.6,-1.3 1.6,-1.3 0.7,0 1.4,0.3 2,0.7 L 16,16.8 C 15.4,16.2 14.3,15.7 12.9,15.7 10.6,15.8 9,17.1 9,18.7"
   style="fill:#004684" />
</g>
<g
   id="g3045"
   transform="matrix(9.1771352,0,0,9.1771352,83.434308,371.67977)">
	<path
   id="path3047"
   inkscape:connector-curvature="0"
   class="st0"
   d="m 10.7,24.6 c 0,3.6 2.7,6.4 6.9,6.4 1.2,0 2.5,-0.4 3.2,-0.8 l -0.7,-1.5 c -0.6,0.3 -1.5,0.6 -2.4,0.6 -2.4,0 -4.4,-1.7 -4.4,-4.6 0,-2.8 1.8,-4.5 4.3,-4.5 0.9,0 1.9,0.4 2.5,0.7 l 0.8,-1.5 c -0.8,-0.5 -2,-0.9 -3.3,-0.9 -4.2,-0.1 -6.9,2.8 -6.9,6.1"
   style="fill:#004684" />
</g>
<g
   id="g3049"
   transform="matrix(9.1771352,0,0,9.1771352,164.23623,372.44789)">
	<path
   id="path3051"
   inkscape:connector-curvature="0"
   class="st0"
   d="m 12.9,24.4 c 0,3.6 2.3,6.5 6.1,6.5 3.8,0 6.1,-2.8 6.1,-6.5 0,-3.4 -2.6,-6.1 -6.1,-6.1 -3.5,0 -6.1,2.7 -6.1,6.1 m 2.6,0 c 0,-2.2 1,-4.4 3.5,-4.4 2.5,0 3.5,2.1 3.5,4.4 0,2.3 -0.9,4.7 -3.5,4.7 -2.6,0 -3.5,-2.4 -3.5,-4.7"
   style="fill:#004684" />
</g>
<g
   id="g3053"
   transform="matrix(9.1771352,0,0,9.1771352,255.71758,415.70248)">
	<path
   id="path3055"
   inkscape:connector-curvature="0"
   class="st0"
   d="m 15.4,13.8 v 1.6 h 3.7 v 10.5 h 2.4 V 15.4 h 3.7 v -1.6 z"
   style="fill:#004684" />
</g>
<g
   id="g3057"
   transform="matrix(9.1771352,0,0,9.1771352,339.09645,415.71074)">
	<path
   id="path3059"
   inkscape:connector-curvature="0"
   class="st0"
   d="M 17.7,13.8 V 25.9 H 25 V 24.3 H 20.2 V 13.8 Z"
   style="fill:#004684" />
</g>
<g
   id="g3061"
   transform="matrix(9.1771352,0,0,9.1771352,433.97242,415.71074)">
	<path
   id="path3063"
   inkscape:connector-curvature="0"
   class="st0"
   d="m 20.3,13.8 -4.9,12.1 h 2.1 l 1.2,-3.3 H 23 l 1.1,3.3 h 2.7 L 22.2,13.8 h -1.9 m 0.7,2.4 v 0 c 0.6,1.9 1.1,3.3 1.6,4.9 h -3.3 c 0.6,-1.6 1.2,-3 1.7,-4.9"
   style="fill:#004684" />
</g>
<g
   id="g3065"
   transform="matrix(9.1771352,0,0,9.1771352,556.03018,415.71074)">
	<path
   id="path3067"
   inkscape:connector-curvature="0"
   class="st0"
   d="m 23.6,13.8 v 8.6 0 C 21.3,19.3 19,16.5 16.7,13.8 h -1.8 v 12.1 h 2 v -8.7 0 c 2.3,3.1 4.6,5.9 6.9,8.7 h 1.8 V 13.8 h -2"
   style="fill:#004684" />
</g>
<g
   id="g3069"
   transform="matrix(9.1771352,0,0,9.1771352,585.95408,415.70248)">
	<path
   id="path3071"
   inkscape:connector-curvature="0"
   class="st0"
   d="m 24.4,13.8 v 12.1 h 4 c 4.3,0 6.9,-2.4 6.9,-6.4 0,-2.9 -1.7,-5.7 -6.6,-5.7 h -4.3 m 2.5,1.6 h 1.8 c 2.6,0 4,1.6 4,4.1 0,3.4 -1.5,4.8 -4.3,4.8 h -1.5 v -8.9"
   style="fill:#004684" />
</g>
</svg>